{
    "asset" : {
        "generator" : "Khronos glTF Blender I/O v1.6.16",
        "version" : "2.0"
    },
    "extensionsUsed" : [
        "KHR_materials_clearcoat"
    ],
    "scene" : 0,
    "scenes" : [
        {
            "name" : "Scene",
            "nodes" : [
                0,
                1,
                2,
                3,
                4
            ]
        }
    ],
    "nodes" : [
        {
            "mesh" : 0,
            "name" : "body",
            "scale" : [
                2.3941726684570312,
                0.2619694471359253,
                0.2619694471359253
            ]
        },
        {
            "mesh" : 1,
            "name" : "wheel_FL"
        },
        {
            "mesh" : 2,
            "name" : "wheel_FR"
        },
        {
            "mesh" : 3,
            "name" : "wheel_RL"
        },
        {
            "mesh" : 4,
            "name" : "wheel_RR"
        }
    ],
    "materials" : [
        {
            "doubleSided" : true,
            "extensions" : {
                "KHR_materials_clearcoat" : {
                    "clearcoatFactor" : 1,
                    "clearcoatRoughnessFactor" : 0.029999999329447746
                }
            },
            "name" : "Material.003",
            "pbrMetallicRoughness" : {
                "baseColorFactor" : [
                    0.7991032004356384,
                    0.42326757311820984,
                    0.3185468912124634,
                    1
                ],
                "roughnessFactor" : 0.18421053886413574
            }
        }
    ],
    "meshes" : [
        {
            "name" : "Cube.001",
            "primitives" : [
                {
                    "attributes" : {
                        "POSITION" : 0,
                        "NORMAL" : 1,
                        "TEXCOORD_0" : 2
                    },
                    "indices" : 3
                }
            ]
        },
        {
            "name" : "Cylinder.002",
            "primitives" : [
                {
                    "attributes" : {
                        "POSITION" : 4,
                        "NORMAL" : 5,
                        "TEXCOORD_0" : 6
                    },
                    "indices" : 7,
                    "material" : 0
                }
            ]
        },
        {
            "name" : "Cylinder.004",
            "primitives" : [
                {
                    "attributes" : {
                        "POSITION" : 8,
                        "NORMAL" : 9,
                        "TEXCOORD_0" : 10
                    },
                    "indices" : 11,
                    "material" : 0
                }
            ]
        },
        {
            "name" : "Cylinder.003",
            "primitives" : [
                {
                    "attributes" : {
                        "POSITION" : 12,
                        "NORMAL" : 13,
                        "TEXCOORD_0" : 14
                    },
                    "indices" : 15,
                    "material" : 0
                }
            ]
        },
        {
            "name" : "Cylinder.005",
            "primitives" : [
                {
                    "attributes" : {
                        "POSITION" : 16,
                        "NORMAL" : 17,
                        "TEXCOORD_0" : 18
                    },
                    "indices" : 19,
                    "material" : 0
                }
            ]
        }
    ],
    "accessors" : [
        {
            "bufferView" : 0,
            "componentType" : 5126,
            "count" : 140,
            "max" : [
                0.8506120443344116,
                5.868841171264648,
                3.067751407623291
            ],
            "min" : [
                -0.7442814707756042,
                1.0895793437957764,
                -3.067751407623291
            ],
            "type" : "VEC3"
        },
        {
            "bufferView" : 1,
            "componentType" : 5126,
            "count" : 140,
            "type" : "VEC3"
        },
        {
            "bufferView" : 2,
            "componentType" : 5126,
            "count" : 140,
            "type" : "VEC2"
        },
        {
            "bufferView" : 3,
            "componentType" : 5123,
            "count" : 216,
            "type" : "SCALAR"
        },
        {
            "bufferView" : 4,
            "componentType" : 5126,
            "count" : 435,
            "max" : [
                1.7282235622406006,
                0.6682978868484497,
                -0.6285803318023682
            ],
            "min" : [
                1.060936450958252,
                0.0010105371475219727,
                -0.8269350528717041
            ],
            "type" : "VEC3"
        },
        {
            "bufferView" : 5,
            "componentType" : 5126,
            "count" : 435,
            "type" : "VEC3"
        },
        {
            "bufferView" : 6,
            "componentType" : 5126,
            "count" : 435,
            "type" : "VEC2"
        },
        {
            "bufferView" : 7,
            "componentType" : 5123,
            "count" : 714,
            "type" : "SCALAR"
        },
        {
            "bufferView" : 8,
            "componentType" : 5126,
            "count" : 430,
            "max" : [
                1.7282235622406006,
                0.6682978868484497,
                0.8269350528717041
            ],
            "min" : [
                1.060936450958252,
                0.0010105371475219727,
                0.6285803318023682
            ],
            "type" : "VEC3"
        },
        {
            "bufferView" : 9,
            "componentType" : 5126,
            "count" : 430,
            "type" : "VEC3"
        },
        {
            "bufferView" : 10,
            "componentType" : 5126,
            "count" : 430,
            "type" : "VEC2"
        },
        {
            "bufferView" : 11,
            "componentType" : 5123,
            "count" : 714,
            "type" : "SCALAR"
        },
        {
            "bufferView" : 12,
            "componentType" : 5126,
            "count" : 425,
            "max" : [
                -0.7937870025634766,
                0.6682978868484497,
                -0.6285803318023682
            ],
            "min" : [
                -1.4610741138458252,
                0.0010105371475219727,
                -0.8269350528717041
            ],
            "type" : "VEC3"
        },
        {
            "bufferView" : 13,
            "componentType" : 5126,
            "count" : 425,
            "type" : "VEC3"
        },
        {
            "bufferView" : 14,
            "componentType" : 5126,
            "count" : 425,
            "type" : "VEC2"
        },
        {
            "bufferView" : 15,
            "componentType" : 5123,
            "count" : 714,
            "type" : "SCALAR"
        },
        {
            "bufferView" : 16,
            "componentType" : 5126,
            "count" : 423,
            "max" : [
                -0.7937870025634766,
                0.6682978868484497,
                0.8269350528717041
            ],
            "min" : [
                -1.4610741138458252,
                0.0010105371475219727,
                0.6285803318023682
            ],
            "type" : "VEC3"
        },
        {
            "bufferView" : 17,
            "componentType" : 5126,
            "count" : 423,
            "type" : "VEC3"
        },
        {
            "bufferView" : 18,
            "componentType" : 5126,
            "count" : 423,
            "type" : "VEC2"
        },
        {
            "bufferView" : 19,
            "componentType" : 5123,
            "count" : 714,
            "type" : "SCALAR"
        }
    ],
    "bufferViews" : [
        {
            "buffer" : 0,
            "byteLength" : 1680,
            "byteOffset" : 0
        },
        {
            "buffer" : 0,
            "byteLength" : 1680,
            "byteOffset" : 1680
        },
        {
            "buffer" : 0,
            "byteLength" : 1120,
            "byteOffset" : 3360
        },
        {
            "buffer" : 0,
            "byteLength" : 432,
            "byteOffset" : 4480
        },
        {
            "buffer" : 0,
            "byteLength" : 5220,
            "byteOffset" : 4912
        },
        {
            "buffer" : 0,
            "byteLength" : 5220,
            "byteOffset" : 10132
        },
        {
            "buffer" : 0,
            "byteLength" : 3480,
            "byteOffset" : 15352
        },
        {
            "buffer" : 0,
            "byteLength" : 1428,
            "byteOffset" : 18832
        },
        {
            "buffer" : 0,
            "byteLength" : 5160,
            "byteOffset" : 20260
        },
        {
            "buffer" : 0,
            "byteLength" : 5160,
            "byteOffset" : 25420
        },
        {
            "buffer" : 0,
            "byteLength" : 3440,
            "byteOffset" : 30580
        },
        {
            "buffer" : 0,
            "byteLength" : 1428,
            "byteOffset" : 34020
        },
        {
            "buffer" : 0,
            "byteLength" : 5100,
            "byteOffset" : 35448
        },
        {
            "buffer" : 0,
            "byteLength" : 5100,
            "byteOffset" : 40548
        },
        {
            "buffer" : 0,
            "byteLength" : 3400,
            "byteOffset" : 45648
        },
        {
            "buffer" : 0,
            "byteLength" : 1428,
            "byteOffset" : 49048
        },
        {
            "buffer" : 0,
            "byteLength" : 5076,
            "byteOffset" : 50476
        },
        {
            "buffer" : 0,
            "byteLength" : 5076,
            "byteOffset" : 55552
        },
        {
            "buffer" : 0,
            "byteLength" : 3384,
            "byteOffset" : 60628
        },
        {
            "buffer" : 0,
            "byteLength" : 1428,
            "byteOffset" : 64012
        }
    ],
    "buffers" : [
        {
            "byteLength" : 65440,
            "uri" : "data:application/octet-stream;base64,"
        }
    ]
}
