{
    "asset" : {
        "generator" : "Khronos glTF Blender I/O v1.6.16",
        "version" : "2.0"
    },
    "extensionsUsed" : [
        "KHR_materials_clearcoat"
    ],
    "scene" : 0,
    "scenes" : [
        {
            "name" : "Scene",
            "nodes" : [
                0,
                1,
                2,
                3,
                4
            ]
        }
    ],
    "nodes" : [
        {
            "mesh" : 0,
            "name" : "body",
            "scale" : [
                2.3941726684570312,
                0.2619694471359253,
                0.2619694471359253
            ],
            "translation" : [
                0.21500107645988464,
                0.8829551935195923,
                0
            ]
        },
        {
            "mesh" : 1,
            "name" : "wheel_FL",
            "translation" : [
                1.3945800065994263,
                0.33465418219566345,
                -0.7716550230979919
            ]
        },
        {
            "mesh" : 2,
            "name" : "wheel_FR",
            "translation" : [
                1.3945807218551636,
                0.3346540331840515,
                0.7716547846794128
            ]
        },
        {
            "mesh" : 3,
            "name" : "wheel_RL",
            "translation" : [
                -1.127431035041809,
                0.3346540331840515,
                -0.7716547846794128
            ]
        },
        {
            "mesh" : 4,
            "name" : "wheel_RR",
            "translation" : [
                -1.127431035041809,
                0.3346540331840515,
                0.7716547846794128
            ]
        }
    ],
    "materials" : [
        {
            "doubleSided" : true,
            "extensions" : {
                "KHR_materials_clearcoat" : {
                    "clearcoatFactor" : 1,
                    "clearcoatRoughnessFactor" : 0.029999999329447746
                }
            },
            "name" : "Material.003",
            "pbrMetallicRoughness" : {
                "baseColorFactor" : [
                    0.7991032004356384,
                    0.42326757311820984,
                    0.3185468912124634,
                    1
                ],
                "roughnessFactor" : 0.18421053886413574
            }
        }
    ],
    "meshes" : [
        {
            "name" : "Cube.001",
            "primitives" : [
                {
                    "attributes" : {
                        "POSITION" : 0,
                        "NORMAL" : 1,
                        "TEXCOORD_0" : 2
                    },
                    "indices" : 3
                }
            ]
        },
        {
            "name" : "Cylinder.002",
            "primitives" : [
                {
                    "attributes" : {
                        "POSITION" : 4,
                        "NORMAL" : 5,
                        "TEXCOORD_0" : 6
                    },
                    "indices" : 7,
                    "material" : 0
                }
            ]
        },
        {
            "name" : "Cylinder.004",
            "primitives" : [
                {
                    "attributes" : {
                        "POSITION" : 8,
                        "NORMAL" : 9,
                        "TEXCOORD_0" : 10
                    },
                    "indices" : 11,
                    "material" : 0
                }
            ]
        },
        {
            "name" : "Cylinder.003",
            "primitives" : [
                {
                    "attributes" : {
                        "POSITION" : 12,
                        "NORMAL" : 13,
                        "TEXCOORD_0" : 14
                    },
                    "indices" : 15,
                    "material" : 0
                }
            ]
        },
        {
            "name" : "Cylinder.005",
            "primitives" : [
                {
                    "attributes" : {
                        "POSITION" : 16,
                        "NORMAL" : 17,
                        "TEXCOORD_0" : 18
                    },
                    "indices" : 11,
                    "material" : 0
                }
            ]
        }
    ],
    "accessors" : [
        {
            "bufferView" : 0,
            "componentType" : 5126,
            "count" : 142,
            "max" : [
                0.7608101963996887,
                2.4983901977539062,
                3.067751407623291
            ],
            "min" : [
                -0.8340833187103271,
                -2.280871629714966,
                -3.067751407623291
            ],
            "type" : "VEC3"
        },
        {
            "bufferView" : 1,
            "componentType" : 5126,
            "count" : 142,
            "type" : "VEC3"
        },
        {
            "bufferView" : 2,
            "componentType" : 5126,
            "count" : 142,
            "type" : "VEC2"
        },
        {
            "bufferView" : 3,
            "componentType" : 5123,
            "count" : 216,
            "type" : "SCALAR"
        },
        {
            "bufferView" : 4,
            "componentType" : 5126,
            "count" : 421,
            "max" : [
                0.3336435556411743,
                0.33364370465278625,
                0.14307469129562378
            ],
            "min" : [
                -0.3336435556411743,
                -0.3336436450481415,
                -0.05528002977371216
            ],
            "type" : "VEC3"
        },
        {
            "bufferView" : 5,
            "componentType" : 5126,
            "count" : 421,
            "type" : "VEC3"
        },
        {
            "bufferView" : 6,
            "componentType" : 5126,
            "count" : 421,
            "type" : "VEC2"
        },
        {
            "bufferView" : 7,
            "componentType" : 5123,
            "count" : 714,
            "type" : "SCALAR"
        },
        {
            "bufferView" : 8,
            "componentType" : 5126,
            "count" : 421,
            "max" : [
                0.333642840385437,
                0.3336438536643982,
                0.05528026819229126
            ],
            "min" : [
                -0.3336442708969116,
                -0.33364349603652954,
                -0.14307445287704468
            ],
            "type" : "VEC3"
        },
        {
            "bufferView" : 9,
            "componentType" : 5126,
            "count" : 421,
            "type" : "VEC3"
        },
        {
            "bufferView" : 10,
            "componentType" : 5126,
            "count" : 421,
            "type" : "VEC2"
        },
        {
            "bufferView" : 11,
            "componentType" : 5123,
            "count" : 714,
            "type" : "SCALAR"
        },
        {
            "bufferView" : 12,
            "componentType" : 5126,
            "count" : 431,
            "max" : [
                0.3336440324783325,
                0.3336438536643982,
                0.14307445287704468
            ],
            "min" : [
                -0.3336430788040161,
                -0.33364349603652954,
                -0.05528026819229126
            ],
            "type" : "VEC3"
        },
        {
            "bufferView" : 13,
            "componentType" : 5126,
            "count" : 431,
            "type" : "VEC3"
        },
        {
            "bufferView" : 14,
            "componentType" : 5126,
            "count" : 431,
            "type" : "VEC2"
        },
        {
            "bufferView" : 15,
            "componentType" : 5123,
            "count" : 714,
            "type" : "SCALAR"
        },
        {
            "bufferView" : 16,
            "componentType" : 5126,
            "count" : 421,
            "max" : [
                0.3336440324783325,
                0.3336438536643982,
                0.05528026819229126
            ],
            "min" : [
                -0.3336430788040161,
                -0.33364349603652954,
                -0.14307445287704468
            ],
            "type" : "VEC3"
        },
        {
            "bufferView" : 17,
            "componentType" : 5126,
            "count" : 421,
            "type" : "VEC3"
        },
        {
            "bufferView" : 18,
            "componentType" : 5126,
            "count" : 421,
            "type" : "VEC2"
        }
    ],
    "bufferViews" : [
        {
            "buffer" : 0,
            "byteLength" : 1704,
            "byteOffset" : 0
        },
        {
            "buffer" : 0,
            "byteLength" : 1704,
            "byteOffset" : 1704
        },
        {
            "buffer" : 0,
            "byteLength" : 1136,
            "byteOffset" : 3408
        },
        {
            "buffer" : 0,
            "byteLength" : 432,
            "byteOffset" : 4544
        },
        {
            "buffer" : 0,
            "byteLength" : 5052,
            "byteOffset" : 4976
        },
        {
            "buffer" : 0,
            "byteLength" : 5052,
            "byteOffset" : 10028
        },
        {
            "buffer" : 0,
            "byteLength" : 3368,
            "byteOffset" : 15080
        },
        {
            "buffer" : 0,
            "byteLength" : 1428,
            "byteOffset" : 18448
        },
        {
            "buffer" : 0,
            "byteLength" : 5052,
            "byteOffset" : 19876
        },
        {
            "buffer" : 0,
            "byteLength" : 5052,
            "byteOffset" : 24928
        },
        {
            "buffer" : 0,
            "byteLength" : 3368,
            "byteOffset" : 29980
        },
        {
            "buffer" : 0,
            "byteLength" : 1428,
            "byteOffset" : 33348
        },
        {
            "buffer" : 0,
            "byteLength" : 5172,
            "byteOffset" : 34776
        },
        {
            "buffer" : 0,
            "byteLength" : 5172,
            "byteOffset" : 39948
        },
        {
            "buffer" : 0,
            "byteLength" : 3448,
            "byteOffset" : 45120
        },
        {
            "buffer" : 0,
            "byteLength" : 1428,
            "byteOffset" : 48568
        },
        {
            "buffer" : 0,
            "byteLength" : 5052,
            "byteOffset" : 49996
        },
        {
            "buffer" : 0,
            "byteLength" : 5052,
            "byteOffset" : 55048
        },
        {
            "buffer" : 0,
            "byteLength" : 3368,
            "byteOffset" : 60100
        }
    ],
    "buffers" : [
        {
            "byteLength" : 63468,
            "uri" : "data:application/octet-stream;base64,"
        }
    ]
}
