{
    "asset" : {
        "generator" : "Khronos glTF Blender I/O v1.6.16",
        "version" : "2.0"
    },
    "extensionsUsed" : [
        "KHR_materials_clearcoat"
    ],
    "scene" : 0,
    "scenes" : [
        {
            "name" : "Scene",
            "nodes" : [
                0,
                1,
                2,
                3,
                4,
                5,
                6
            ]
        }
    ],
    "nodes" : [
        {
            "mesh" : 0,
            "name" : "body",
            "scale" : [
                2.3941726684570312,
                0.2619694471359253,
                0.2619694471359253
            ],
            "translation" : [
                0.21500107645988464,
                0.8829551935195923,
                0
            ]
        },
        {
            "mesh" : 1,
            "name" : "wheel_FL",
            "translation" : [
                1.3945800065994263,
                0.33465418219566345,
                -0.7716550230979919
            ]
        },
        {
            "mesh" : 2,
            "name" : "wheel_FR",
            "translation" : [
                1.3945807218551636,
                0.3346540331840515,
                0.7716547846794128
            ]
        },
        {
            "mesh" : 3,
            "name" : "wheel_RL",
            "translation" : [
                -1.127431035041809,
                0.3346540331840515,
                -0.7716547846794128
            ]
        },
        {
            "mesh" : 4,
            "name" : "wheel_RR",
            "translation" : [
                -1.127431035041809,
                0.3346540331840515,
                0.7716547846794128
            ]
        },
        {
            "mesh" : 5,
            "name" : "lights_rear",
            "translation" : [
                0.21500110626220703,
                0.8829551935195923,
                0
            ]
        },
        {
            "mesh" : 6,
            "name" : "Plane",
            "scale" : [
                16.51070785522461,
                16.51070785522461,
                16.51070785522461
            ],
            "translation" : [
                1.3923650979995728,
                0.006047309376299381,
                -1.895686388015747
            ]
        }
    ],
    "materials" : [
        {
            "doubleSided" : true,
            "name" : "AO_Mat",
            "pbrMetallicRoughness" : {
                "baseColorTexture" : {
                    "index" : 0
                },
                "metallicFactor" : 0,
                "roughnessFactor" : 0.5
            }
        },
        {
            "doubleSided" : true,
            "extensions" : {
                "KHR_materials_clearcoat" : {
                    "clearcoatFactor" : 1,
                    "clearcoatRoughnessFactor" : 0.029999999329447746
                }
            },
            "name" : "Material.003",
            "pbrMetallicRoughness" : {
                "baseColorFactor" : [
                    0.7991032004356384,
                    0.42326757311820984,
                    0.3185468912124634,
                    1
                ],
                "roughnessFactor" : 0.18421053886413574
            }
        },
        {
            "doubleSided" : true,
            "name" : "AO_Floor",
            "pbrMetallicRoughness" : {
                "baseColorTexture" : {
                    "index" : 1
                },
                "metallicFactor" : 0,
                "roughnessFactor" : 0.5066224932670593
            }
        }
    ],
    "meshes" : [
        {
            "name" : "Cube.001",
            "primitives" : [
                {
                    "attributes" : {
                        "POSITION" : 0,
                        "NORMAL" : 1,
                        "TEXCOORD_0" : 2
                    },
                    "indices" : 3,
                    "material" : 0
                }
            ]
        },
        {
            "name" : "Cylinder.002",
            "primitives" : [
                {
                    "attributes" : {
                        "POSITION" : 4,
                        "NORMAL" : 5,
                        "TEXCOORD_0" : 6
                    },
                    "indices" : 7,
                    "material" : 1
                }
            ]
        },
        {
            "name" : "Cylinder.004",
            "primitives" : [
                {
                    "attributes" : {
                        "POSITION" : 8,
                        "NORMAL" : 9,
                        "TEXCOORD_0" : 10
                    },
                    "indices" : 11,
                    "material" : 1
                }
            ]
        },
        {
            "name" : "Cylinder.003",
            "primitives" : [
                {
                    "attributes" : {
                        "POSITION" : 12,
                        "NORMAL" : 13,
                        "TEXCOORD_0" : 14
                    },
                    "indices" : 15,
                    "material" : 1
                }
            ]
        },
        {
            "name" : "Cylinder.005",
            "primitives" : [
                {
                    "attributes" : {
                        "POSITION" : 16,
                        "NORMAL" : 17,
                        "TEXCOORD_0" : 18
                    },
                    "indices" : 11,
                    "material" : 1
                }
            ]
        },
        {
            "name" : "Cylinder",
            "primitives" : [
                {
                    "attributes" : {
                        "POSITION" : 19,
                        "NORMAL" : 20,
                        "TEXCOORD_0" : 21
                    },
                    "indices" : 22
                }
            ]
        },
        {
            "name" : "Plane",
            "primitives" : [
                {
                    "attributes" : {
                        "POSITION" : 23,
                        "NORMAL" : 24,
                        "TEXCOORD_0" : 25
                    },
                    "indices" : 26,
                    "material" : 2
                }
            ]
        }
    ],
    "textures" : [
        {
            "sampler" : 0,
            "source" : 0
        },
        {
            "sampler" : 0,
            "source" : 1
        }
    ],
    "images" : [
        {
            "bufferView" : 4,
            "mimeType" : "image/png",
            "name" : "AO_Image"
        },
        {
            "bufferView" : 28,
            "mimeType" : "image/png",
            "name" : "AO_Floor"
        }
    ],
    "accessors" : [
        {
            "bufferView" : 0,
            "componentType" : 5126,
            "count" : 500,
            "max" : [
                0.7608101963996887,
                2.4983901977539062,
                3.309642791748047
            ],
            "min" : [
                -0.8583362102508545,
                -2.280871629714966,
                -3.3242833614349365
            ],
            "type" : "VEC3"
        },
        {
            "bufferView" : 1,
            "componentType" : 5126,
            "count" : 500,
            "type" : "VEC3"
        },
        {
            "bufferView" : 2,
            "componentType" : 5126,
            "count" : 500,
            "type" : "VEC2"
        },
        {
            "bufferView" : 3,
            "componentType" : 5123,
            "count" : 756,
            "type" : "SCALAR"
        },
        {
            "bufferView" : 5,
            "componentType" : 5126,
            "count" : 421,
            "max" : [
                0.3336435556411743,
                0.33364370465278625,
                0.14307469129562378
            ],
            "min" : [
                -0.3336435556411743,
                -0.3336436450481415,
                -0.05528002977371216
            ],
            "type" : "VEC3"
        },
        {
            "bufferView" : 6,
            "componentType" : 5126,
            "count" : 421,
            "type" : "VEC3"
        },
        {
            "bufferView" : 7,
            "componentType" : 5126,
            "count" : 421,
            "type" : "VEC2"
        },
        {
            "bufferView" : 8,
            "componentType" : 5123,
            "count" : 714,
            "type" : "SCALAR"
        },
        {
            "bufferView" : 9,
            "componentType" : 5126,
            "count" : 421,
            "max" : [
                0.333642840385437,
                0.3336438536643982,
                0.05528026819229126
            ],
            "min" : [
                -0.3336442708969116,
                -0.33364349603652954,
                -0.14307445287704468
            ],
            "type" : "VEC3"
        },
        {
            "bufferView" : 10,
            "componentType" : 5126,
            "count" : 421,
            "type" : "VEC3"
        },
        {
            "bufferView" : 11,
            "componentType" : 5126,
            "count" : 421,
            "type" : "VEC2"
        },
        {
            "bufferView" : 12,
            "componentType" : 5123,
            "count" : 714,
            "type" : "SCALAR"
        },
        {
            "bufferView" : 13,
            "componentType" : 5126,
            "count" : 431,
            "max" : [
                0.3336440324783325,
                0.3336438536643982,
                0.14307445287704468
            ],
            "min" : [
                -0.3336430788040161,
                -0.33364349603652954,
                -0.05528026819229126
            ],
            "type" : "VEC3"
        },
        {
            "bufferView" : 14,
            "componentType" : 5126,
            "count" : 431,
            "type" : "VEC3"
        },
        {
            "bufferView" : 15,
            "componentType" : 5126,
            "count" : 431,
            "type" : "VEC2"
        },
        {
            "bufferView" : 16,
            "componentType" : 5123,
            "count" : 714,
            "type" : "SCALAR"
        },
        {
            "bufferView" : 17,
            "componentType" : 5126,
            "count" : 421,
            "max" : [
                0.3336440324783325,
                0.3336438536643982,
                0.05528026819229126
            ],
            "min" : [
                -0.3336430788040161,
                -0.33364349603652954,
                -0.14307445287704468
            ],
            "type" : "VEC3"
        },
        {
            "bufferView" : 18,
            "componentType" : 5126,
            "count" : 421,
            "type" : "VEC3"
        },
        {
            "bufferView" : 19,
            "componentType" : 5126,
            "count" : 421,
            "type" : "VEC2"
        },
        {
            "bufferView" : 20,
            "componentType" : 5126,
            "count" : 48,
            "max" : [
                -1.9626893997192383,
                0.0348171591758728,
                0.7348231673240662
            ],
            "min" : [
                -2.035543918609619,
                -0.04191309213638306,
                -0.7348232865333557
            ],
            "type" : "VEC3"
        },
        {
            "bufferView" : 21,
            "componentType" : 5126,
            "count" : 48,
            "type" : "VEC3"
        },
        {
            "bufferView" : 22,
            "componentType" : 5126,
            "count" : 48,
            "type" : "VEC2"
        },
        {
            "bufferView" : 23,
            "componentType" : 5123,
            "count" : 72,
            "type" : "SCALAR"
        },
        {
            "bufferView" : 24,
            "componentType" : 5126,
            "count" : 4,
            "max" : [
                0.10183709114789963,
                0,
                0.1937454640865326
            ],
            "min" : [
                -0.2511349320411682,
                0,
                0.03187938779592514
            ],
            "type" : "VEC3"
        },
        {
            "bufferView" : 25,
            "componentType" : 5126,
            "count" : 4,
            "type" : "VEC3"
        },
        {
            "bufferView" : 26,
            "componentType" : 5126,
            "count" : 4,
            "type" : "VEC2"
        },
        {
            "bufferView" : 27,
            "componentType" : 5123,
            "count" : 6,
            "type" : "SCALAR"
        }
    ],
    "bufferViews" : [
        {
            "buffer" : 0,
            "byteLength" : 6000,
            "byteOffset" : 0
        },
        {
            "buffer" : 0,
            "byteLength" : 6000,
            "byteOffset" : 6000
        },
        {
            "buffer" : 0,
            "byteLength" : 4000,
            "byteOffset" : 12000
        },
        {
            "buffer" : 0,
            "byteLength" : 1512,
            "byteOffset" : 16000
        },
        {
            "buffer" : 0,
            "byteLength" : 656134,
            "byteOffset" : 17512
        },
        {
            "buffer" : 0,
            "byteLength" : 5052,
            "byteOffset" : 673648
        },
        {
            "buffer" : 0,
            "byteLength" : 5052,
            "byteOffset" : 678700
        },
        {
            "buffer" : 0,
            "byteLength" : 3368,
            "byteOffset" : 683752
        },
        {
            "buffer" : 0,
            "byteLength" : 1428,
            "byteOffset" : 687120
        },
        {
            "buffer" : 0,
            "byteLength" : 5052,
            "byteOffset" : 688548
        },
        {
            "buffer" : 0,
            "byteLength" : 5052,
            "byteOffset" : 693600
        },
        {
            "buffer" : 0,
            "byteLength" : 3368,
            "byteOffset" : 698652
        },
        {
            "buffer" : 0,
            "byteLength" : 1428,
            "byteOffset" : 702020
        },
        {
            "buffer" : 0,
            "byteLength" : 5172,
            "byteOffset" : 703448
        },
        {
            "buffer" : 0,
            "byteLength" : 5172,
            "byteOffset" : 708620
        },
        {
            "buffer" : 0,
            "byteLength" : 3448,
            "byteOffset" : 713792
        },
        {
            "buffer" : 0,
            "byteLength" : 1428,
            "byteOffset" : 717240
        },
        {
            "buffer" : 0,
            "byteLength" : 5052,
            "byteOffset" : 718668
        },
        {
            "buffer" : 0,
            "byteLength" : 5052,
            "byteOffset" : 723720
        },
        {
            "buffer" : 0,
            "byteLength" : 3368,
            "byteOffset" : 728772
        },
        {
            "buffer" : 0,
            "byteLength" : 576,
            "byteOffset" : 732140
        },
        {
            "buffer" : 0,
            "byteLength" : 576,
            "byteOffset" : 732716
        },
        {
            "buffer" : 0,
            "byteLength" : 384,
            "byteOffset" : 733292
        },
        {
            "buffer" : 0,
            "byteLength" : 144,
            "byteOffset" : 733676
        },
        {
            "buffer" : 0,
            "byteLength" : 48,
            "byteOffset" : 733820
        },
        {
            "buffer" : 0,
            "byteLength" : 48,
            "byteOffset" : 733868
        },
        {
            "buffer" : 0,
            "byteLength" : 32,
            "byteOffset" : 733916
        },
        {
            "buffer" : 0,
            "byteLength" : 12,
            "byteOffset" : 733948
        },
        {
            "buffer" : 0,
            "byteLength" : 498603,
            "byteOffset" : 733960
        }
    ],
    "samplers" : [
        {
            "magFilter" : 9729,
            "minFilter" : 9987
        }
    ],
    "buffers" : [
        {
            "byteLength" : 1232564,
            "uri" : "data:application/octet-stream;base64,"
        }
    ]
}
